<svg xmlns="http://www.w3.org/2000/svg" viewBox="0 0 400 400" width="400" height="400">
  <path d="M200 20 L220 25 L240 22 L260 28 L275 35 L285 45 L290 55 
           L295 65 L300 75 L305 85 L310 95 L315 105 L318 115 
           L320 125 L322 135 L325 145 L328 155 L330 165 
           L332 175 L335 185 L338 195 L340 205 L342 215 
           L345 225 L348 235 L350 245 L352 255 L355 265 
           L358 275 L360 285 L362 295 L364 305 L365 315 
           L366 325 L367 335 L368 345 L369 355 L370 365 
           L368 375 L365 380 L360 385 L355 388 L350 390 
           L345 392 L340 393 L335 394 L330 395 L325 396 
           L320 397 L315 398 L310 399 L305 400 L300 400 
           L295 399 L290 398 L285 397 L280 396 L275 395 
           L270 394 L265 393 L260 392 L255 391 L250 390 
           L245 388 L240 386 L235 384 L230 382 L225 380 
           L220 378 L215 376 L210 374 L205 372 L200 370 
           L195 368 L190 366 L185 364 L180 362 L175 360 
           L170 358 L165 356 L160 354 L155 352 L150 350 
           L145 348 L140 346 L135 344 L130 342 L125 340 
           L120 338 L115 336 L110 334 L105 332 L100 330 
           L95 328 L90 325 L85 322 L80 318 L75 314 
           L70 310 L65 305 L60 300 L55 295 L50 290 
           L45 285 L40 280 L38 275 L36 270 L35 265 
           L34 260 L33 255 L32 250 L31 245 L30 240 
           L29 235 L28 230 L27 225 L26 220 L25 215 
           L24 210 L23 205 L22 200 L21 195 L20 190 
           L19 185 L18 180 L17 175 L16 170 L15 165 
           L14 160 L13 155 L12 150 L11 145 L10 140 
           L9 135 L8 130 L7 125 L6 120 L5 115 
           L4 110 L3 105 L2 100 L1 95 L0 90 
           L2 85 L5 80 L8 75 L12 70 L16 65 
           L20 60 L25 55 L30 50 L35 45 L40 40 
           L45 35 L50 30 L55 25 L60 20 L65 16 
           L70 12 L75 8 L80 5 L85 3 L90 2 
           L95 1 L100 0 L105 0 L110 1 L115 2 
           L120 3 L125 4 L130 5 L135 6 L140 7 
           L145 8 L150 9 L155 10 L160 11 L165 12 
           L170 13 L175 14 L180 15 L185 16 L190 17 
           L195 18 Z" 
        fill="none" 
        stroke="#D4A843" 
        stroke-width="1.5" 
        stroke-linecap="round" 
        stroke-linejoin="round"/>
  <!-- Western Cape extension -->
  <path d="M80 318 L78 325 L76 332 L74 340 L72 348 L70 356 
           L68 364 L66 372 L65 380 L66 388 L68 395 
           L72 400 L78 402 L85 403 L92 402 L98 400 
           L104 397 L110 394 L116 390 L122 386 L128 382" 
        fill="none" 
        stroke="#D4A843" 
        stroke-width="1.5" 
        stroke-linecap="round" 
        stroke-linejoin="round"/>
  <!-- Eastern Cape notch -->
  <path d="M200 370 L205 378 L210 385 L218 390 L228 393 
           L238 394 L248 393 L258 391" 
        fill="none" 
        stroke="#D4A843" 
        stroke-width="1.5" 
        stroke-linecap="round" 
        stroke-linejoin="round"/>
  <!-- KZN bulge -->
  <path d="M320 200 L328 198 L336 196 L344 194 L352 192 
           L360 190 L368 188 L376 186 L380 190 L382 198 
           L383 206 L382 214 L380 222 L378 230 L376 238" 
        fill="none" 
        stroke="#D4A843" 
        stroke-width="1.5" 
        stroke-linecap="round" 
        stroke-linejoin="round"/>
  <!-- Limpopo top -->
  <path d="M260 28 L268 22 L276 16 L284 10 L292 5 
           L300 2 L308 1 L316 2 L324 4 L332 6 
           L340 8 L348 10 L356 12 L364 14 L372 16 
           L380 18 L388 20 L392 25 L394 32 L395 40 
           L394 48 L392 56 L390 64 L388 72 L386 80" 
        fill="none" 
        stroke="#D4A843" 
        stroke-width="1.5" 
        stroke-linecap="round" 
        stroke-linejoin="round"/>
</svg>